<svg width="50" height="50" viewBox="0 0 615 610" fill="none" xmlns="http://www.w3.org/2000/svg">
<path d="M94.411 413.168L140.449 376.624L189.43 409.116L173.665 465.741L114.94 468.245L94.411 413.168Z" fill="#8B5B35"/>
<path d="M230.411 516.168L276.449 479.624L325.43 512.116L309.665 568.741L250.94 571.245L230.411 516.168Z" fill="#B86E35"/>
<path d="M254.802 414.105L264.152 492.235L195.211 565.194L143.253 532.155L180.082 438.777L254.802 414.105Z" fill="#A56737"/>
<path d="M119.665 104.493L173.176 80.1719L212.842 123.548L183.847 174.677L126.26 162.9L119.665 104.493Z" fill="#8B5B35"/>
<path d="M203.913 76.8637L254.542 47.0041L298.585 85.9282L275.177 139.844L216.666 134.242L203.913 76.8637Z" fill="#B86E35"/>
<path d="M305.797 49.1515L361.88 31.5543L395.946 79.4542L360.917 126.655L305.202 107.927L305.797 49.1515Z" fill="#A56737"/>
<path d="M397.797 40.1515L453.88 22.5543L487.946 70.4542L452.917 117.655L397.202 98.927L397.797 40.1515Z" fill="#8B5B35"/>
<path d="M453.797 119.151L509.88 101.554L543.946 149.454L508.917 196.655L453.202 177.927L453.797 119.151Z" fill="#A56737"/>
<path d="M502.689 205.96L553.172 175.854L597.404 214.563L574.259 268.592L515.721 263.276L502.689 205.96Z" fill="#B86E35"/>
<path d="M464.179 333L475.225 275.269L533.544 267.934L558.541 321.132L515.671 361.345L464.179 333Z" fill="#A56737"/>
<path d="M413.787 260.613L464.325 290.628L451.396 347.967L392.868 353.39L369.625 299.403L413.787 260.613Z" fill="#B86E35"/>
<path d="M355.934 156.624L385.622 105.894L443.043 118.452L448.844 176.944L395.007 200.535L355.934 156.624Z" fill="#B86E35"/>
<path d="M283.655 126.714L342.333 123.262L363.747 178.001L318.305 215.283L268.806 183.585L283.655 126.714Z" fill="#8B5B35"/>
<path d="M266.056 152.481L271.63 210.995L217.703 234.378L178.8 190.316L208.683 139.701L266.056 152.481Z" fill="#A56737"/>
<path d="M508.38 244.614L462.951 281.911L413.441 250.23L428.272 193.353L486.948 189.883L508.38 244.614Z" fill="#8B5B35"/>
<path d="M321.585 216.005L372 185.785L416.32 224.394L393.296 278.475L334.747 273.291L321.585 216.005Z" fill="#A56737"/>
<path d="M99.7739 228.293C197.533 185.491 278.022 207.08 341.239 293.06C404.456 379.039 484.944 400.628 582.704 357.827" stroke="#3B59F5" stroke-width="100"/>
<path d="M46.625 312.573C144.384 269.772 224.873 291.361 288.09 377.34C351.307 463.32 431.795 484.909 529.555 442.107" stroke="#3B7BF5" stroke-width="100"/>
<path d="M20.9534 408.937C118.713 366.135 199.201 387.724 262.418 473.704C325.635 559.683 406.124 581.272 503.883 538.471" stroke="#3BB2F5" stroke-width="100"/>
</svg>